<svg width="468" height="500" viewBox="0 0 468 500" fill="none" xmlns="http://www.w3.org/2000/svg">
<rect width="468" height="500" fill="#D9D9D9"/>
<rect x="42" y="24" width="140" height="110" rx="4" fill="#3D3D3D"/>
<rect x="42" y="196" width="140" height="110" rx="4" fill="#3D3D3D"/>
<rect x="42" y="368" width="140" height="110" rx="4" fill="#3D3D3D"/>
<path d="M275.394 39.7869C273.233 40.7874 262.654 49.3917 251.849 58.9966C235.697 73.4039 232.285 77.0057 231.603 80.1073C229.783 88.4115 230.92 89.9122 251.849 108.622C262.654 118.227 273.346 126.831 275.621 127.931C280.967 130.333 284.948 130.333 291.09 127.831C294.844 126.331 296.436 124.93 298.142 121.628C301.896 114.225 300.645 108.922 293.251 102.018L289.725 98.8167H340.569H391.412V264.901V430.985H318.047C246.617 430.985 244.456 431.085 240.133 432.986C235.015 435.287 231.034 440.99 231.034 445.992C231.034 450.995 235.015 456.698 240.133 458.999C244.456 461 246.617 461 328.284 461C409.952 461 412.113 461 416.435 458.999C419.393 457.698 421.781 455.597 423.26 452.996C425.535 449.094 425.535 447.493 425.535 264.901C425.535 82.3084 425.535 80.7076 423.26 76.8056C421.781 74.2043 419.393 72.1032 416.435 70.8026C412.113 68.9016 409.838 68.8015 350.805 68.8015H289.725L293.251 65.4999C300.645 58.6964 301.896 53.3937 298.142 45.99C294.389 38.7863 283.697 35.7848 275.394 39.7869Z" fill="#3D3D3D"/>
</svg>
