<svg width="468" height="500" viewBox="0 0 468 500" fill="none" xmlns="http://www.w3.org/2000/svg">
<rect width="468" height="500" fill="#D9D9D9"/>
<rect x="164" y="134" width="140" height="110" rx="4" fill="#3D3D3D"/>
<rect x="164" y="256" width="140" height="110" rx="4" fill="#3D3D3D"/>
<rect x="164" y="378" width="140" height="110" rx="4" fill="#3D3D3D"/>
<rect x="164" y="12" width="140" height="110" rx="4" fill="#3D3D3D"/>
<rect x="316" y="134" width="140" height="110" rx="4" fill="#3D3D3D"/>
<rect x="316" y="256" width="140" height="110" rx="4" fill="#3D3D3D"/>
<rect x="316" y="378" width="140" height="110" rx="4" fill="#3D3D3D"/>
<rect x="316" y="12" width="140" height="110" rx="4" fill="#3D3D3D"/>
<rect x="12" y="134" width="140" height="110" rx="4" fill="#3D3D3D"/>
<rect x="12" y="256" width="140" height="110" rx="4" fill="#3D3D3D"/>
<rect x="12" y="378" width="140" height="110" rx="4" fill="#3D3D3D"/>
<rect x="12" y="12" width="140" height="110" rx="4" fill="#D9D9D9"/>
<rect x="12" y="12" width="140" height="110" rx="4" fill="#D9D9D9"/>
<rect x="12" y="12" width="140" height="110" rx="4" fill="#3D3D3D"/>
</svg>
